<?xml version="1.0" encoding="UTF-8" standalone="no"?>
<!DOCTYPE svg PUBLIC "-//W3C//DTD SVG 1.1//EN"
 "http://www.w3.org/Graphics/SVG/1.1/DTD/svg11.dtd">
<!-- Generated by graphviz version 10.0.1 (20240210.2158)
 -->
<!-- Pages: 1 -->
<svg width="623pt" height="673pt"
 viewBox="0.00 0.00 622.94 673.00" xmlns="http://www.w3.org/2000/svg" xmlns:xlink="http://www.w3.org/1999/xlink">
<g id="graph0" class="graph" transform="scale(1 1) rotate(0) translate(4 669)">
<g id="clust1" class="cluster">
<title>cluster_networking</title>
<polygon fill="none" stroke="#777777" points="9.94,-8 9.94,-584 606.94,-584 606.94,-8 9.94,-8"/>
<text text-anchor="middle" x="308.44" y="-566.7" font-family="TeX Gyre Pagella" font-size="14.00">Networking Machine</text>
</g>
<g id="clust2" class="cluster">
<title>cluster_inter_domain</title>
<polygon fill="none" stroke="#aaaaaa" points="308.94,-319 308.94,-553 478.94,-553 478.94,-319 308.94,-319"/>
<text text-anchor="middle" x="393.94" y="-535.7" font-family="TeX Gyre Pagella" font-size="14.00">Inter&#45;domain protocols</text>
</g>
<g id="clust3" class="cluster">
<title>cluster_intra_domain</title>
<polygon fill="none" stroke="#aaaaaa" points="49.94,-232 49.94,-478 268.94,-478 268.94,-232 49.94,-232"/>
<text text-anchor="middle" x="159.44" y="-460.7" font-family="TeX Gyre Pagella" font-size="14.00">Intra&#45;domain protocols</text>
</g>
<g id="clust4" class="cluster">
<title>cluster_node</title>
<polygon fill="none" stroke="#aaaaaa" points="280.94,-16 280.94,-311 598.94,-311 598.94,-16 280.94,-16"/>
<text text-anchor="middle" x="439.94" y="-293.7" font-family="TeX Gyre Pagella" font-size="14.00">Intra&#45;node &amp; inter&#45;node protocols</text>
</g>
<!-- Router -->
<g id="node1" class="node">
<title>Router</title>
<polygon fill="none" stroke="black" stroke-width="2" points="578.69,-254.54 578.69,-269.46 555.4,-280 522.48,-280 499.19,-269.46 499.19,-254.54 522.48,-244 555.4,-244 578.69,-254.54"/>
<text text-anchor="middle" x="538.94" y="-256.2" font-family="TeX Gyre Pagella" font-size="14.00">Router</text>
</g>
<!-- PubSub -->
<g id="node8" class="node">
<title>PubSub</title>
<polygon fill="none" stroke="black" points="184.96,-337.54 184.96,-352.46 158.59,-363 121.29,-363 94.92,-352.46 94.92,-337.54 121.29,-327 158.59,-327 184.96,-337.54"/>
<polygon fill="none" stroke="black" points="188.96,-334.84 188.96,-355.16 159.36,-367 120.52,-367 90.92,-355.16 90.92,-334.84 120.52,-323 159.36,-323 188.96,-334.84"/>
<text text-anchor="middle" x="139.94" y="-339.2" font-family="TeX Gyre Pagella" font-size="14.00">PubSub</text>
</g>
<!-- Router&#45;&gt;PubSub -->
<g id="edge18" class="edge">
<title>Router&#45;&gt;PubSub</title>
<path fill="none" stroke="#555555" d="M498.24,-269.61C444.38,-279.17 347.04,-297.23 263.94,-311 240.44,-314.89 234.16,-313.65 210.94,-319 202.76,-320.88 194.2,-323.19 185.95,-325.63"/>
<polygon fill="#555555" stroke="#555555" points="176.51,-328.53 184.75,-321.29 180.13,-327.42 186.07,-325.59 186.07,-325.59 186.07,-325.59 180.13,-327.42 187.39,-329.9 176.51,-328.53"/>
</g>
<!-- Transport -->
<g id="node10" class="node">
<title>Transport</title>
<polygon fill="none" stroke="black" points="590.82,-106.54 590.82,-121.46 560.43,-132 517.45,-132 487.06,-121.46 487.06,-106.54 517.45,-96 560.43,-96 590.82,-106.54"/>
<text text-anchor="middle" x="538.94" y="-108.2" font-family="TeX Gyre Pagella" font-size="14.00">Transport</text>
</g>
<!-- Router&#45;&gt;Transport -->
<g id="edge17" class="edge">
<title>Router&#45;&gt;Transport</title>
<path fill="none" stroke="#555555" d="M529.71,-243.1C524.64,-218.09 524.08,-172.46 528.05,-142.95"/>
<polygon fill="#555555" stroke="#555555" points="529.67,-133.34 532.45,-143.95 529.04,-137.07 528.01,-143.2 528.01,-143.2 528.01,-143.2 529.04,-137.07 523.57,-142.46 529.67,-133.34"/>
</g>
<!-- NIDS -->
<g id="node11" class="node">
<title>NIDS</title>
<polygon fill="none" stroke="black" points="451.02,-178.54 451.02,-193.46 424.03,-204 385.85,-204 358.86,-193.46 358.86,-178.54 385.85,-168 424.03,-168 451.02,-178.54"/>
<text text-anchor="middle" x="404.94" y="-180.2" font-family="TeX Gyre Pagella" font-size="14.00">ID Store</text>
</g>
<!-- Router&#45;&gt;NIDS -->
<g id="edge19" class="edge">
<title>Router&#45;&gt;NIDS</title>
<path fill="none" stroke="#555555" d="M510.66,-248.28C489.23,-237.34 459.91,-221.32 437.52,-208.41"/>
<polygon fill="#555555" stroke="#555555" points="429.13,-203.52 440.04,-204.67 432.4,-205.42 437.77,-208.55 437.77,-208.55 437.77,-208.55 432.4,-205.42 435.5,-212.44 429.13,-203.52"/>
</g>
<!-- Ordering -->
<g id="node2" class="node">
<title>Ordering</title>
<polygon fill="none" stroke="#aaaaaa" points="601.32,-665 476.57,-665 476.57,-629 601.32,-629 601.32,-665"/>
<text text-anchor="middle" x="538.94" y="-641.2" font-family="TeX Gyre Pagella" font-size="14.00">Ordering Machine</text>
</g>
<!-- Ordering&#45;&gt;Router -->
<g id="edge1" class="edge">
<title>Ordering&#45;&gt;Router</title>
<path fill="none" stroke="#555555" d="M538.94,-628.63C538.94,-602.02 538.94,-549.55 538.94,-505 538.94,-505 538.94,-505 538.94,-424 538.94,-377.7 538.94,-323.9 538.94,-291.7"/>
<polygon fill="#555555" stroke="#555555" points="538.94,-282.09 543.44,-292.09 538.94,-285.87 538.94,-292.09 538.94,-292.09 538.94,-292.09 538.94,-285.87 534.44,-292.09 538.94,-282.09"/>
</g>
<!-- DomainRouting -->
<g id="node3" class="node">
<title>DomainRouting</title>
<polygon fill="none" stroke="black" points="471.15,-337.54 471.15,-352.46 425.92,-363 361.96,-363 316.73,-352.46 316.73,-337.54 361.96,-327 425.92,-327 471.15,-337.54"/>
<text text-anchor="middle" x="393.94" y="-339.2" font-family="TeX Gyre Pagella" font-size="14.00">DomainRouting</text>
</g>
<!-- DomainRouting&#45;&gt;Router -->
<g id="edge7" class="edge">
<title>DomainRouting&#45;&gt;Router</title>
<path fill="none" stroke="#555555" stroke-dasharray="1,5" d="M434.83,-321.16C456.77,-308.9 483.51,-293.96 504.4,-282.29"/>
<polygon fill="#555555" stroke="#555555" points="426.11,-326.03 432.65,-317.22 429.41,-324.19 434.84,-321.15 434.84,-321.15 434.84,-321.15 429.41,-324.19 437.04,-325.08 426.11,-326.03"/>
<polygon fill="#555555" stroke="#555555" points="513.07,-277.45 506.54,-286.26 509.77,-279.29 504.34,-282.33 504.34,-282.33 504.34,-282.33 509.77,-279.29 502.15,-278.4 513.07,-277.45"/>
</g>
<!-- Clustering -->
<g id="node4" class="node">
<title>Clustering</title>
<polygon fill="none" stroke="black" points="470.93,-417.54 470.93,-432.46 439.31,-443 394.58,-443 362.95,-432.46 362.95,-417.54 394.58,-407 439.31,-407 470.93,-417.54"/>
<text text-anchor="middle" x="416.94" y="-419.2" font-family="TeX Gyre Pagella" font-size="14.00">Clustering</text>
</g>
<!-- Clustering&#45;&gt;Router -->
<g id="edge8" class="edge">
<title>Clustering&#45;&gt;Router</title>
<path fill="none" stroke="#555555" stroke-dasharray="1,5" d="M448.24,-399.58C459.11,-390.15 470.83,-378.79 479.94,-367 494.65,-347.97 493.14,-339.96 504.94,-319 510.27,-309.54 516.35,-299.35 521.89,-290.28"/>
<polygon fill="#555555" stroke="#555555" points="440.72,-405.92 445.47,-396.04 443.61,-403.48 448.37,-399.48 448.37,-399.48 448.37,-399.48 443.61,-403.48 451.26,-402.92 440.72,-405.92"/>
<polygon fill="#555555" stroke="#555555" points="526.97,-282.02 525.56,-292.89 524.99,-285.24 521.73,-290.53 521.73,-290.53 521.73,-290.53 524.99,-285.24 517.9,-288.17 526.97,-282.02"/>
</g>
<!-- Clustering&#45;&gt;DomainRouting -->
<g id="edge3" class="edge">
<title>Clustering&#45;&gt;DomainRouting</title>
<path fill="none" stroke="#555555" stroke-dasharray="5,2" d="M411.84,-406.69C409.01,-397.1 405.42,-384.93 402.2,-374.02"/>
<polygon fill="#555555" stroke="#555555" points="399.38,-364.43 406.52,-372.75 400.45,-368.06 402.2,-374.02 402.2,-374.02 402.2,-374.02 400.45,-368.06 397.89,-375.3 399.38,-364.43"/>
</g>
<!-- Topology -->
<g id="node7" class="node">
<title>Topology</title>
<polygon fill="none" stroke="black" points="257.19,-254.54 257.19,-269.46 228.34,-280 187.54,-280 158.7,-269.46 158.7,-254.54 187.54,-244 228.34,-244 257.19,-254.54"/>
<polygon fill="none" stroke="black" points="261.19,-251.75 261.19,-272.25 229.05,-284 186.83,-284 154.7,-272.25 154.7,-251.75 186.83,-240 229.05,-240 261.19,-251.75"/>
<text text-anchor="middle" x="207.94" y="-256.2" font-family="TeX Gyre Pagella" font-size="14.00">Topology</text>
</g>
<!-- Clustering&#45;&gt;Topology -->
<g id="edge4" class="edge">
<title>Clustering&#45;&gt;Topology</title>
<path fill="none" stroke="#555555" stroke-dasharray="5,2" d="M383.84,-410.1C361.35,-399.86 331.52,-384.68 307.94,-367 278.93,-345.24 250.75,-314.83 231.74,-292.51"/>
<polygon fill="#555555" stroke="#555555" points="225.45,-285.03 235.33,-289.79 227.88,-287.92 231.88,-292.69 231.88,-292.69 231.88,-292.69 227.88,-287.92 228.43,-295.58 225.45,-285.03"/>
</g>
<!-- Clustering&#45;&gt;NIDS -->
<g id="edge20" class="edge">
<title>Clustering&#45;&gt;NIDS</title>
<path fill="none" stroke="#555555" d="M454.37,-411.5C495.6,-395.48 559.79,-363.34 587.94,-311 604.57,-280.08 609.6,-259.63 587.94,-232 572.45,-212.23 509.71,-199.99 461.97,-193.36"/>
<polygon fill="#555555" stroke="#555555" points="452.33,-192.07 462.83,-188.93 456.08,-192.57 462.24,-193.39 462.24,-193.39 462.24,-193.39 456.08,-192.57 461.64,-197.85 452.33,-192.07"/>
</g>
<!-- PeerSampling -->
<g id="node5" class="node">
<title>PeerSampling</title>
<polygon fill="none" stroke="black" points="459.35,-496.54 459.35,-511.46 417.52,-522 358.36,-522 316.54,-511.46 316.54,-496.54 358.36,-486 417.52,-486 459.35,-496.54"/>
<text text-anchor="middle" x="387.94" y="-498.2" font-family="TeX Gyre Pagella" font-size="14.00">PeerSampling</text>
</g>
<!-- PeerSampling&#45;&gt;Router -->
<g id="edge9" class="edge">
<title>PeerSampling&#45;&gt;Router</title>
<path fill="none" stroke="#555555" stroke-dasharray="1,5" d="M342.95,-480.28C342.25,-479.54 341.58,-478.78 340.94,-478 295.25,-422.13 263.32,-375.73 307.94,-319 329.86,-291.14 426.4,-275.45 487.53,-268.15"/>
<polygon fill="#555555" stroke="#555555" points="350.38,-486.65 339.85,-483.56 347.5,-484.19 342.78,-480.14 342.78,-480.14 342.78,-480.14 347.5,-484.19 345.71,-476.72 350.38,-486.65"/>
<polygon fill="#555555" stroke="#555555" points="497.3,-267.02 487.88,-272.64 493.54,-267.45 487.36,-268.17 487.36,-268.17 487.36,-268.17 493.54,-267.45 486.85,-263.7 497.3,-267.02"/>
</g>
<!-- PeerSampling&#45;&gt;DomainRouting -->
<g id="edge5" class="edge">
<title>PeerSampling&#45;&gt;DomainRouting</title>
<path fill="none" stroke="#555555" stroke-dasharray="5,2" d="M359.3,-485.55C357.18,-483.26 355.33,-480.75 353.94,-478 338.89,-448.26 343.9,-434.79 353.94,-403 357.44,-391.93 363.94,-381.15 370.69,-372"/>
<polygon fill="#555555" stroke="#555555" points="376.68,-364.39 374.03,-375.03 374.34,-367.36 370.5,-372.25 370.5,-372.25 370.5,-372.25 374.34,-367.36 366.96,-369.46 376.68,-364.39"/>
</g>
<!-- PeerSampling&#45;&gt;Clustering -->
<g id="edge2" class="edge">
<title>PeerSampling&#45;&gt;Clustering</title>
<path fill="none" stroke="#555555" stroke-dasharray="5,2" d="M394.52,-485.53C398.04,-476.17 402.47,-464.43 406.45,-453.86"/>
<polygon fill="#555555" stroke="#555555" points="409.96,-444.54 410.64,-455.49 408.62,-448.08 406.43,-453.9 406.43,-453.9 406.43,-453.9 408.62,-448.08 402.22,-452.32 409.96,-444.54"/>
</g>
<!-- PeerSampling&#45;&gt;Topology -->
<g id="edge6" class="edge">
<title>PeerSampling&#45;&gt;Topology</title>
<path fill="none" stroke="#555555" stroke-dasharray="5,2" d="M316.09,-502.79C221.97,-501.76 66.71,-497.13 48.94,-478 -0.18,-425.12 32.04,-371.14 81.94,-319 100.25,-299.87 126.27,-286.81 149.91,-278.16"/>
<polygon fill="#555555" stroke="#555555" points="159.06,-274.99 151.08,-282.51 155.49,-276.23 149.61,-278.26 149.61,-278.26 149.61,-278.26 155.49,-276.23 148.14,-274.01 159.06,-274.99"/>
</g>
<!-- PeerSampling&#45;&gt;NIDS -->
<g id="edge21" class="edge">
<title>PeerSampling&#45;&gt;NIDS</title>
<path fill="none" stroke="#555555" d="M316.31,-503.21C215.93,-502.74 43.42,-498.86 23.94,-478 -13.6,-437.79 -6.77,-284.54 45.94,-232 66.91,-211.1 251.71,-196.58 347.65,-190.37"/>
<polygon fill="#555555" stroke="#555555" points="357.4,-189.75 347.71,-194.88 353.63,-189.99 347.42,-190.39 347.42,-190.39 347.42,-190.39 353.63,-189.99 347.13,-185.9 357.4,-189.75"/>
</g>
<!-- Domain -->
<g id="node6" class="node">
<title>Domain</title>
<polygon fill="none" stroke="black" points="257.44,-417.54 257.44,-432.46 231.37,-443 194.51,-443 168.44,-432.46 168.44,-417.54 194.51,-407 231.37,-407 257.44,-417.54"/>
<polygon fill="none" stroke="black" points="261.44,-414.85 261.44,-435.15 232.15,-447 193.73,-447 164.44,-435.15 164.44,-414.85 193.73,-403 232.15,-403 261.44,-414.85"/>
<text text-anchor="middle" x="212.94" y="-419.2" font-family="TeX Gyre Pagella" font-size="14.00">Domain</text>
</g>
<!-- Domain&#45;&gt;Router -->
<g id="edge14" class="edge">
<title>Domain&#45;&gt;Router</title>
<path fill="none" stroke="#555555" stroke-dasharray="1,5" d="M222.99,-392.35C232.2,-368.53 248.22,-337.01 272.94,-319 306.59,-294.49 420.2,-277.16 487.57,-268.76"/>
<polygon fill="#555555" stroke="#555555" points="219.65,-401.53 218.84,-390.59 220.94,-397.97 223.07,-392.13 223.07,-392.13 223.07,-392.13 220.94,-397.97 227.3,-393.67 219.65,-401.53"/>
<polygon fill="#555555" stroke="#555555" points="497.16,-267.59 487.78,-273.27 493.41,-268.05 487.24,-268.8 487.24,-268.8 487.24,-268.8 493.41,-268.05 486.69,-264.34 497.16,-267.59"/>
</g>
<!-- Domain&#45;&gt;DomainRouting -->
<g id="edge10" class="edge">
<title>Domain&#45;&gt;DomainRouting</title>
<path fill="none" stroke="#555555" d="M247.84,-408.96C275.8,-396.91 315.33,-379.87 346.23,-366.56"/>
<polygon fill="#555555" stroke="#555555" points="355.22,-362.69 347.82,-370.78 351.75,-364.18 346.04,-366.64 346.04,-366.64 346.04,-366.64 351.75,-364.18 344.26,-362.51 355.22,-362.69"/>
</g>
<!-- Topology&#45;&gt;Router -->
<g id="edge15" class="edge">
<title>Topology&#45;&gt;Router</title>
<path fill="none" stroke="#555555" stroke-dasharray="1,5" d="M272.69,-262C344.23,-262 415.76,-262 487.3,-262"/>
<polygon fill="#555555" stroke="#555555" points="262.82,-262 272.82,-257.5 266.6,-262 272.82,-262 272.82,-262 272.82,-262 266.6,-262 272.82,-266.5 262.82,-262"/>
<polygon fill="#555555" stroke="#555555" points="497.1,-262 487.1,-266.5 493.31,-262 487.1,-262 487.1,-262 487.1,-262 493.31,-262 487.1,-257.5 497.1,-262"/>
</g>
<!-- Topology&#45;&gt;NIDS -->
<g id="edge22" class="edge">
<title>Topology&#45;&gt;NIDS</title>
<path fill="none" stroke="#555555" d="M244.3,-245.24C254.78,-240.83 266.27,-236.11 276.94,-232 304.32,-221.44 335.36,-210.51 360.02,-202.06"/>
<polygon fill="#555555" stroke="#555555" points="369.36,-198.87 361.34,-206.36 365.78,-200.09 359.89,-202.1 359.89,-202.1 359.89,-202.1 365.78,-200.09 358.44,-197.84 369.36,-198.87"/>
</g>
<!-- PubSub&#45;&gt;Router -->
<g id="edge12" class="edge">
<title>PubSub&#45;&gt;Router</title>
<path fill="none" stroke="#555555" stroke-dasharray="1,5" d="M182.62,-332C197.3,-327.43 213.77,-322.49 228.94,-319 252.16,-313.65 258.44,-314.89 281.94,-311 354.83,-298.92 438.68,-283.55 490.34,-273.5"/>
<polygon fill="#555555" stroke="#555555" points="499.98,-271.61 491.03,-277.95 496.27,-272.33 490.17,-273.53 490.17,-273.53 490.17,-273.53 496.27,-272.33 489.3,-269.11 499.98,-271.61"/>
</g>
<!-- PubSub&#45;&gt;Topology -->
<g id="edge11" class="edge">
<title>PubSub&#45;&gt;Topology</title>
<path fill="none" stroke="#555555" d="M157.81,-322.72C165.48,-313.58 174.57,-302.75 182.9,-292.83"/>
<polygon fill="#555555" stroke="#555555" points="189.17,-285.35 186.19,-295.91 186.74,-288.25 182.74,-293.01 182.74,-293.01 182.74,-293.01 186.74,-288.25 179.3,-290.12 189.17,-285.35"/>
</g>
<!-- PubSub&#45;&gt;NIDS -->
<g id="edge23" class="edge">
<title>PubSub&#45;&gt;NIDS</title>
<path fill="none" stroke="#555555" d="M133.98,-322.51C128.47,-297.54 124.09,-256.61 145.94,-232 171.96,-202.7 279.57,-192.46 347.64,-188.9"/>
<polygon fill="#555555" stroke="#555555" points="357.4,-188.42 347.63,-193.4 353.62,-188.6 347.41,-188.91 347.41,-188.91 347.41,-188.91 353.62,-188.6 347.19,-184.41 357.4,-188.42"/>
</g>
<!-- Storage -->
<g id="node9" class="node">
<title>Storage</title>
<polygon fill="none" stroke="black" points="146.44,-417.54 146.44,-432.46 120.37,-443 83.51,-443 57.44,-432.46 57.44,-417.54 83.51,-407 120.37,-407 146.44,-417.54"/>
<text text-anchor="middle" x="101.94" y="-419.2" font-family="TeX Gyre Pagella" font-size="14.00">Storage</text>
</g>
<!-- Storage&#45;&gt;Router -->
<g id="edge16" class="edge">
<title>Storage&#45;&gt;Router</title>
<path fill="none" stroke="#555555" stroke-dasharray="1,5" d="M140.94,-405.82C159.49,-395.99 181.22,-382.64 197.94,-367 216.85,-349.31 209.2,-333.06 230.94,-319 232.29,-318.13 400.31,-287.88 487.59,-272.21"/>
<polygon fill="#555555" stroke="#555555" points="132.09,-410.36 138.93,-401.79 135.45,-408.63 140.99,-405.79 140.99,-405.79 140.99,-405.79 135.45,-408.63 143.04,-409.8 132.09,-410.36"/>
<polygon fill="#555555" stroke="#555555" points="497.38,-270.45 488.33,-276.65 493.66,-271.12 487.54,-272.22 487.54,-272.22 487.54,-272.22 493.66,-271.12 486.74,-267.79 497.38,-270.45"/>
</g>
<!-- Storage&#45;&gt;PubSub -->
<g id="edge13" class="edge">
<title>Storage&#45;&gt;PubSub</title>
<path fill="none" stroke="#555555" d="M110.37,-406.69C114.56,-398.1 119.75,-387.44 124.61,-377.47"/>
<polygon fill="#555555" stroke="#555555" points="128.96,-368.53 128.63,-379.5 127.31,-371.93 124.58,-377.52 124.58,-377.52 124.58,-377.52 127.31,-371.93 120.54,-375.55 128.96,-368.53"/>
</g>
<!-- Transport&#45;&gt;Router -->
<g id="edge29" class="edge">
<title>Transport&#45;&gt;Router</title>
<path fill="none" stroke="#555555" d="M538.94,-132.14C538.94,-156.72 538.94,-202.3 538.94,-232.14"/>
<polygon fill="#555555" stroke="#555555" points="538.94,-241.88 534.44,-231.88 538.94,-238.1 538.94,-231.88 538.94,-231.88 538.94,-231.88 538.94,-238.1 543.44,-231.88 538.94,-241.88"/>
</g>
<!-- Transport&#45;&gt;Router -->
<g id="edge30" class="edge">
<title>Transport&#45;&gt;Router</title>
<path fill="none" stroke="#555555" stroke-dasharray="5,2" d="M548.01,-132.14C553.18,-156.72 553.82,-202.3 549.95,-232.14"/>
<polygon fill="#555555" stroke="#555555" points="548.36,-241.89 545.53,-231.3 548.97,-238.16 549.97,-232.02 549.97,-232.02 549.97,-232.02 548.97,-238.16 554.41,-232.75 548.36,-241.89"/>
</g>
<!-- WebSocket -->
<g id="node12" class="node">
<title>WebSocket</title>
<polygon fill="none" stroke="black" points="374.44,-60 289.44,-60 289.44,-24 374.44,-24 374.44,-60"/>
<text text-anchor="middle" x="331.94" y="-36.2" font-family="TeX Gyre Pagella" font-size="14.00">WebSocket</text>
</g>
<!-- Transport&#45;&gt;WebSocket -->
<g id="edge25" class="edge">
<title>Transport&#45;&gt;WebSocket</title>
<path fill="none" stroke="#555555" d="M492.38,-97.25C460.56,-86.49 418.31,-72.21 385.16,-61"/>
<polygon fill="#555555" stroke="#555555" points="501.73,-100.42 490.82,-101.48 498.15,-99.21 492.26,-97.21 492.26,-97.21 492.26,-97.21 498.15,-99.21 493.7,-92.95 501.73,-100.42"/>
<polygon fill="#555555" stroke="#555555" points="375.89,-57.86 386.81,-56.8 379.47,-59.07 385.36,-61.07 385.36,-61.07 385.36,-61.07 379.47,-59.07 383.92,-65.33 375.89,-57.86"/>
</g>
<!-- Veilid -->
<g id="node13" class="node">
<title>Veilid</title>
<polygon fill="none" stroke="black" points="446.94,-60 392.94,-60 392.94,-24 446.94,-24 446.94,-60"/>
<text text-anchor="middle" x="419.94" y="-36.2" font-family="TeX Gyre Pagella" font-size="14.00">Veilid</text>
</g>
<!-- Transport&#45;&gt;Veilid -->
<g id="edge26" class="edge">
<title>Transport&#45;&gt;Veilid</title>
<path fill="none" stroke="#555555" d="M502.74,-91.7C488.13,-83.11 471.31,-73.22 456.65,-64.6"/>
<polygon fill="#555555" stroke="#555555" points="511.18,-96.67 500.28,-95.48 507.93,-94.76 502.57,-91.6 502.57,-91.6 502.57,-91.6 507.93,-94.76 504.85,-87.72 511.18,-96.67"/>
<polygon fill="#555555" stroke="#555555" points="448.43,-59.76 459.33,-60.95 451.69,-61.68 457.05,-64.83 457.05,-64.83 457.05,-64.83 451.69,-61.68 454.77,-68.71 448.43,-59.76"/>
</g>
<!-- Nym -->
<g id="node14" class="node">
<title>Nym</title>
<polygon fill="none" stroke="black" points="518.94,-60 464.94,-60 464.94,-24 518.94,-24 518.94,-60"/>
<text text-anchor="middle" x="491.94" y="-36.2" font-family="TeX Gyre Pagella" font-size="14.00">Nym</text>
</g>
<!-- Transport&#45;&gt;Nym -->
<g id="edge27" class="edge">
<title>Transport&#45;&gt;Nym</title>
<path fill="none" stroke="#555555" d="M521.16,-86.51C517.35,-80.85 513.33,-74.86 509.53,-69.2"/>
<polygon fill="#555555" stroke="#555555" points="526.64,-94.69 517.33,-88.89 524.54,-91.55 521.07,-86.38 521.07,-86.38 521.07,-86.38 524.54,-91.55 524.81,-83.87 526.64,-94.69"/>
<polygon fill="#555555" stroke="#555555" points="504.1,-61.12 513.41,-66.91 506.21,-64.26 509.68,-69.42 509.68,-69.42 509.68,-69.42 506.21,-64.26 505.94,-71.93 504.1,-61.12"/>
</g>
<!-- QUIC -->
<g id="node15" class="node">
<title>QUIC</title>
<polygon fill="none" stroke="black" points="590.94,-60 536.94,-60 536.94,-24 590.94,-24 590.94,-60"/>
<text text-anchor="middle" x="563.94" y="-36.2" font-family="TeX Gyre Pagella" font-size="14.00">QUIC</text>
</g>
<!-- Transport&#45;&gt;QUIC -->
<g id="edge28" class="edge">
<title>Transport&#45;&gt;QUIC</title>
<path fill="none" stroke="#555555" d="M548.8,-85.38C550.57,-80.45 552.4,-75.31 554.16,-70.39"/>
<polygon fill="#555555" stroke="#555555" points="545.53,-94.55 544.66,-83.62 546.8,-90.99 548.89,-85.13 548.89,-85.13 548.89,-85.13 546.8,-90.99 553.13,-86.65 545.53,-94.55"/>
<polygon fill="#555555" stroke="#555555" points="557.42,-61.25 558.3,-72.18 556.15,-64.81 554.06,-70.67 554.06,-70.67 554.06,-70.67 556.15,-64.81 549.82,-69.16 557.42,-61.25"/>
</g>
<!-- NIDS&#45;&gt;Router -->
<g id="edge24" class="edge">
<title>NIDS&#45;&gt;Router</title>
<path fill="none" stroke="#555555" stroke-dasharray="5,2" d="M434.41,-200.33C455.99,-211.38 485.08,-227.3 507.17,-240.06"/>
<polygon fill="#555555" stroke="#555555" points="515.72,-245.05 504.81,-243.89 512.45,-243.14 507.08,-240.01 507.08,-240.01 507.08,-240.01 512.45,-243.14 509.35,-236.12 515.72,-245.05"/>
</g>
</g>
</svg>
