<?xml version="1.0" encoding="UTF-8" standalone="no"?>
<!DOCTYPE svg PUBLIC "-//W3C//DTD SVG 1.1//EN"
 "http://www.w3.org/Graphics/SVG/1.1/DTD/svg11.dtd">
<!-- Generated by graphviz version 10.0.1 (20240210.2158)
 -->
<!-- Pages: 1 -->
<svg width="1128pt" height="907pt"
 viewBox="0.00 0.00 1128.21 906.96" xmlns="http://www.w3.org/2000/svg" xmlns:xlink="http://www.w3.org/1999/xlink">
<g id="graph0" class="graph" transform="scale(1 1) rotate(0) translate(4 902.96)">
<g id="clust1" class="cluster">
<title>cluster_a</title>
<polygon fill="none" stroke="#777777" points="322.25,-510.05 322.25,-898.96 620.19,-898.96 620.19,-510.05 322.25,-510.05"/>
<text text-anchor="middle" x="352.75" y="-881.66" font-family="TeX Gyre Pagella" font-size="14.00">Node A</text>
</g>
<g id="clust2" class="cluster">
<title>cluster_b</title>
<polygon fill="none" stroke="#777777" points="495.84,0 495.84,-385.77 789.6,-385.77 789.6,0 495.84,0"/>
<text text-anchor="middle" x="759.1" y="-368.47" font-family="TeX Gyre Pagella" font-size="14.00">Node B</text>
</g>
<g id="clust3" class="cluster">
<title>cluster_c</title>
<polygon fill="none" stroke="#777777" points="743.09,-559.77 743.09,-848.44 1120.21,-848.44 1120.21,-559.77 743.09,-559.77"/>
<text text-anchor="middle" x="773.97" y="-831.14" font-family="TeX Gyre Pagella" font-size="14.00">Node C</text>
</g>
<g id="clust4" class="cluster">
<title>cluster_d</title>
<polygon fill="none" stroke="#777777" points="0,-30.02 0,-371.93 371.94,-371.93 371.94,-30.02 0,-30.02"/>
<text text-anchor="middle" x="185.97" y="-354.63" font-family="TeX Gyre Pagella" font-size="14.00">Node D</text>
</g>
<!-- A_R -->
<g id="node1" class="node">
<title>A_R</title>
<ellipse fill="none" stroke="black" stroke-width="2" cx="466.76" cy="-663.04" rx="27.46" ry="27.46"/>
<ellipse fill="none" stroke="black" stroke-width="2" cx="466.76" cy="-663.04" rx="31.46" ry="31.46"/>
<text text-anchor="middle" x="466.76" y="-657.24" font-family="TeX Gyre Pagella" font-size="14.00">A_R</text>
</g>
<!-- A_PS -->
<g id="node2" class="node">
<title>A_PS</title>
<ellipse fill="none" stroke="black" stroke-width="2" cx="505.82" cy="-866.14" rx="32.82" ry="32.82"/>
<text text-anchor="middle" x="505.82" y="-860.34" font-family="TeX Gyre Pagella" font-size="14.00">A_PS</text>
</g>
<!-- A_R&#45;&gt;A_PS -->
<g id="edge1" class="edge">
<title>A_R&#45;&gt;A_PS</title>
<path fill="none" stroke="#555555" d="M457.92,-693.58C457.79,-733.38 470.93,-802.18 485.78,-839.8"/>
</g>
<!-- A_R&#45;&gt;A_PS -->
<g id="edge21" class="edge">
<title>A_R&#45;&gt;A_PS</title>
<path fill="none" stroke="red" stroke-dasharray="5,2" d="M486.3,-688.12C499.9,-721.86 512.2,-782.22 514.34,-823.23"/>
<polygon fill="red" stroke="red" points="514.63,-833.03 509.83,-823.16 514.51,-829.25 514.33,-823.03 514.33,-823.03 514.33,-823.03 514.51,-829.25 518.83,-822.9 514.63,-833.03"/>
<text text-anchor="middle" x="496.19" y="-742.38" font-family="Times,serif" font-size="14.00">T</text>
</g>
<!-- A_T -->
<g id="node3" class="node">
<title>A_T</title>
<ellipse fill="none" stroke="black" stroke-width="2" cx="593.71" cy="-536.54" rx="26.49" ry="26.49"/>
<text text-anchor="middle" x="593.71" y="-530.74" font-family="TeX Gyre Pagella" font-size="14.00">A_T</text>
</g>
<!-- A_R&#45;&gt;A_T -->
<g id="edge2" class="edge">
<title>A_R&#45;&gt;A_T</title>
<path fill="none" stroke="#555555" d="M495.34,-649.22C523.13,-627.7 563.29,-587.36 582.91,-560.96"/>
</g>
<!-- A_R&#45;&gt;A_T -->
<g id="edge30" class="edge">
<title>A_R&#45;&gt;A_T</title>
<path fill="none" stroke="green" stroke-dasharray="5,2" d="M480.68,-634.51C500.01,-609.72 534.45,-575.08 560.44,-554.07"/>
<polygon fill="green" stroke="green" points="568.28,-547.99 563.13,-557.67 565.29,-550.31 560.38,-554.12 560.38,-554.12 560.38,-554.12 565.29,-550.31 557.62,-550.56 568.28,-547.99"/>
<text text-anchor="middle" x="516.06" y="-597.49" font-family="Times,serif" font-size="14.00">B</text>
</g>
<!-- A_R&#45;&gt;A_T -->
<g id="edge35" class="edge">
<title>A_R&#45;&gt;A_T</title>
<path fill="none" stroke="blue" stroke-dasharray="5,2" d="M489.16,-640.71C510.94,-619.01 544.02,-586.05 567.12,-563.03"/>
<polygon fill="blue" stroke="blue" points="573.97,-556.2 570.07,-566.45 571.29,-558.87 566.89,-563.26 566.89,-563.26 566.89,-563.26 571.29,-558.87 563.71,-560.07 573.97,-556.2"/>
<text text-anchor="middle" x="532.64" y="-605.07" font-family="Times,serif" font-size="14.00">C</text>
</g>
<!-- A_X -->
<g id="node4" class="node">
<title>A_X</title>
<ellipse fill="none" stroke="black" stroke-width="2" cx="349.22" cy="-778.41" rx="26.97" ry="26.97"/>
<text text-anchor="middle" x="349.22" y="-772.61" font-family="TeX Gyre Pagella" font-size="14.00">A_X</text>
</g>
<!-- A_R&#45;&gt;A_X -->
<g id="edge3" class="edge">
<title>A_R&#45;&gt;A_X</title>
<path fill="none" stroke="#555555" d="M440.57,-681.13C417.3,-701.39 384.19,-734.02 364.81,-755.9"/>
</g>
<!-- A_Y -->
<g id="node5" class="node">
<title>A_Y</title>
<ellipse fill="none" stroke="black" stroke-width="2" cx="533.26" cy="-729.27" rx="26.97" ry="26.97"/>
<text text-anchor="middle" x="533.26" y="-723.47" font-family="TeX Gyre Pagella" font-size="14.00">A_Y</text>
</g>
<!-- A_R&#45;&gt;A_Y -->
<g id="edge4" class="edge">
<title>A_R&#45;&gt;A_Y</title>
<path fill="none" stroke="#555555" d="M489.27,-685.46C497.26,-693.42 506.17,-702.3 513.88,-709.97"/>
</g>
<!-- A_PS&#45;&gt;A_R -->
<g id="edge29" class="edge">
<title>A_PS&#45;&gt;A_R</title>
<path fill="none" stroke="green" stroke-dasharray="5,2" d="M504.63,-833C499.9,-797.59 489.27,-741.46 480.2,-703.48"/>
<polygon fill="green" stroke="green" points="477.87,-693.98 484.63,-702.61 478.77,-697.65 480.26,-703.69 480.26,-703.69 480.26,-703.69 478.77,-697.65 475.89,-704.77 477.87,-693.98"/>
<text text-anchor="middle" x="487.92" y="-771.44" font-family="Times,serif" font-size="14.00">B</text>
</g>
<!-- A_PS&#45;&gt;A_R -->
<g id="edge34" class="edge">
<title>A_PS&#45;&gt;A_R</title>
<path fill="none" stroke="blue" stroke-dasharray="5,2" d="M494.64,-834.92C485.89,-800.28 474.95,-744.21 469.27,-705.58"/>
<polygon fill="blue" stroke="blue" points="467.92,-695.89 473.76,-705.18 468.44,-699.64 469.3,-705.8 469.3,-705.8 469.3,-705.8 468.44,-699.64 464.85,-706.42 467.92,-695.89"/>
<text text-anchor="middle" x="477.45" y="-773.45" font-family="Times,serif" font-size="14.00">C</text>
</g>
<!-- B_T -->
<g id="node8" class="node">
<title>B_T</title>
<ellipse fill="none" stroke="black" stroke-width="2" cx="522.33" cy="-359.28" rx="26.49" ry="26.49"/>
<text text-anchor="middle" x="522.33" y="-353.48" font-family="TeX Gyre Pagella" font-size="14.00">B_T</text>
</g>
<!-- A_T&#45;&gt;B_T -->
<g id="edge17" class="edge">
<title>A_T&#45;&gt;B_T</title>
<path fill="none" stroke="#555555" stroke-dasharray="5,2" d="M588.4,-510.46C577.19,-475.75 552.72,-414.97 536.7,-382.02"/>
</g>
<!-- A_T&#45;&gt;B_T -->
<g id="edge31" class="edge">
<title>A_T&#45;&gt;B_T</title>
<path fill="none" stroke="green" stroke-dasharray="5,2" d="M579.46,-514.06C564.98,-484.34 543.52,-431.64 531.23,-396.08"/>
<polygon fill="green" stroke="green" points="528.11,-386.79 535.56,-394.84 529.31,-390.38 531.29,-396.27 531.29,-396.27 531.29,-396.27 529.31,-390.38 527.03,-397.71 528.11,-386.79"/>
<text text-anchor="middle" x="550.85" y="-458.27" font-family="Times,serif" font-size="14.00">B</text>
</g>
<!-- C_T -->
<g id="node13" class="node">
<title>C_T</title>
<ellipse fill="none" stroke="black" stroke-width="2" cx="770.07" cy="-586.74" rx="26.97" ry="26.97"/>
<text text-anchor="middle" x="770.07" y="-580.94" font-family="TeX Gyre Pagella" font-size="14.00">C_T</text>
</g>
<!-- A_T&#45;&gt;C_T -->
<g id="edge18" class="edge">
<title>A_T&#45;&gt;C_T</title>
<path fill="none" stroke="#555555" stroke-dasharray="5,2" d="M617.63,-548.44C650.3,-560.29 708.66,-576.92 742.92,-584.15"/>
</g>
<!-- A_T&#45;&gt;C_T -->
<g id="edge36" class="edge">
<title>A_T&#45;&gt;C_T</title>
<path fill="none" stroke="blue" stroke-dasharray="5,2" d="M620.32,-539.02C651,-545.45 701.52,-559.6 735.29,-571.04"/>
<polygon fill="blue" stroke="blue" points="744.47,-574.25 733.55,-575.2 740.9,-573 735.03,-570.95 735.03,-570.95 735.03,-570.95 740.9,-573 736.52,-566.7 744.47,-574.25"/>
<text text-anchor="middle" x="673.31" y="-558.23" font-family="Times,serif" font-size="14.00">C</text>
</g>
<!-- A_X&#45;&gt;A_R -->
<g id="edge20" class="edge">
<title>A_X&#45;&gt;A_R</title>
<path fill="none" stroke="red" stroke-dasharray="5,2" d="M371.97,-763.29C391.7,-746.46 420.11,-718.96 440.73,-696.98"/>
<polygon fill="red" stroke="red" points="447.39,-689.75 443.92,-700.15 444.83,-692.53 440.61,-697.1 440.61,-697.1 440.61,-697.1 444.83,-692.53 437.3,-694.06 447.39,-689.75"/>
<text text-anchor="middle" x="402.23" y="-733.33" font-family="Times,serif" font-size="14.00">T</text>
</g>
<!-- B_R -->
<g id="node6" class="node">
<title>B_R</title>
<ellipse fill="none" stroke="black" stroke-width="2" cx="589.18" cy="-204.83" rx="27.46" ry="27.46"/>
<ellipse fill="none" stroke="black" stroke-width="2" cx="589.18" cy="-204.83" rx="31.46" ry="31.46"/>
<text text-anchor="middle" x="589.18" y="-199.03" font-family="TeX Gyre Pagella" font-size="14.00">B_R</text>
</g>
<!-- B_PS -->
<g id="node7" class="node">
<title>B_PS</title>
<ellipse fill="none" stroke="black" stroke-width="2" cx="597.38" cy="-32.82" rx="32.82" ry="32.82"/>
<text text-anchor="middle" x="597.38" y="-27.02" font-family="TeX Gyre Pagella" font-size="14.00">B_PS</text>
</g>
<!-- B_R&#45;&gt;B_PS -->
<g id="edge5" class="edge">
<title>B_R&#45;&gt;B_PS</title>
<path fill="none" stroke="#555555" d="M605.83,-177.92C613.75,-146.7 616.31,-95.36 611.64,-62.86"/>
</g>
<!-- B_R&#45;&gt;B_PS -->
<g id="edge33" class="edge">
<title>B_R&#45;&gt;B_PS</title>
<path fill="none" stroke="green" stroke-dasharray="5,2" d="M575.17,-176.46C570.77,-147.99 572.18,-103.89 578.07,-72.07"/>
<polygon fill="green" stroke="green" points="580.08,-62.56 582.41,-73.28 579.3,-66.26 578.01,-72.35 578.01,-72.35 578.01,-72.35 579.3,-66.26 573.6,-71.41 580.08,-62.56"/>
<text text-anchor="middle" x="572.12" y="-127.47" font-family="Times,serif" font-size="14.00">B</text>
</g>
<!-- B_R&#45;&gt;B_T -->
<g id="edge6" class="edge">
<title>B_R&#45;&gt;B_T</title>
<path fill="none" stroke="#555555" d="M567.47,-228.22C550.91,-256.29 530.95,-303 523.11,-332.49"/>
</g>
<!-- B_R&#45;&gt;B_T -->
<g id="edge40" class="edge">
<title>B_R&#45;&gt;B_T</title>
<path fill="none" stroke="blue" stroke-dasharray="5,2" d="M586.99,-236.67C578.89,-264.4 561.93,-304.13 546.95,-330.83"/>
<polygon fill="blue" stroke="blue" points="541.94,-339.32 543.14,-328.42 543.86,-336.06 547.02,-330.71 547.02,-330.71 547.02,-330.71 543.86,-336.06 550.89,-332.99 541.94,-339.32"/>
<text text-anchor="middle" x="562.09" y="-286.95" font-family="Times,serif" font-size="14.00">D</text>
</g>
<!-- B_X -->
<g id="node9" class="node">
<title>B_X</title>
<ellipse fill="none" stroke="black" stroke-width="2" cx="762.63" cy="-107.14" rx="26.97" ry="26.97"/>
<text text-anchor="middle" x="762.63" y="-101.34" font-family="TeX Gyre Pagella" font-size="14.00">B_X</text>
</g>
<!-- B_R&#45;&gt;B_X -->
<g id="edge7" class="edge">
<title>B_R&#45;&gt;B_X</title>
<path fill="none" stroke="#555555" d="M619.16,-193.78C654.11,-176.75 710.9,-144.66 741.52,-124.53"/>
</g>
<!-- B_R&#45;&gt;B_X -->
<g id="edge23" class="edge">
<title>B_R&#45;&gt;B_X</title>
<path fill="none" stroke="red" stroke-dasharray="5,2" d="M614.17,-184.92C643.79,-165.83 693.28,-137.83 726.92,-121.02"/>
<polygon fill="red" stroke="red" points="735.72,-116.72 728.71,-125.15 732.33,-118.38 726.74,-121.11 726.74,-121.11 726.74,-121.11 732.33,-118.38 724.76,-117.06 735.72,-116.72"/>
<text text-anchor="middle" x="666.42" y="-156.17" font-family="Times,serif" font-size="14.00">T</text>
</g>
<!-- B_Y -->
<g id="node10" class="node">
<title>B_Y</title>
<ellipse fill="none" stroke="black" stroke-width="2" cx="655.68" cy="-200.09" rx="26.97" ry="26.97"/>
<text text-anchor="middle" x="655.68" y="-194.29" font-family="TeX Gyre Pagella" font-size="14.00">B_Y</text>
</g>
<!-- B_R&#45;&gt;B_Y -->
<g id="edge8" class="edge">
<title>B_R&#45;&gt;B_Y</title>
<path fill="none" stroke="#555555" d="M620.87,-202.57C623.42,-202.39 625.97,-202.21 628.48,-202.03"/>
</g>
<!-- B_PS&#45;&gt;B_R -->
<g id="edge22" class="edge">
<title>B_PS&#45;&gt;B_R</title>
<path fill="none" stroke="red" stroke-dasharray="5,2" d="M590.39,-65.32C587.5,-92.82 585.46,-132.42 585.3,-162.41"/>
<polygon fill="red" stroke="red" points="585.33,-172.17 580.8,-162.18 585.32,-168.39 585.3,-162.17 585.3,-162.17 585.3,-162.17 585.32,-168.39 589.8,-162.15 585.33,-172.17"/>
<text text-anchor="middle" x="583.72" y="-117.07" font-family="Times,serif" font-size="14.00">T</text>
</g>
<!-- B_PS&#45;&gt;B_R -->
<g id="edge39" class="edge">
<title>B_PS&#45;&gt;B_R</title>
<path fill="none" stroke="blue" stroke-dasharray="5,2" d="M601.25,-65.84C601.52,-93.49 599.78,-133.1 597.09,-162.97"/>
<polygon fill="blue" stroke="blue" points="596.13,-172.68 592.63,-162.29 596.5,-168.92 597.11,-162.73 597.11,-162.73 597.11,-162.73 596.5,-168.92 601.59,-163.17 596.13,-172.68"/>
<text text-anchor="middle" x="594.29" y="-117.6" font-family="Times,serif" font-size="14.00">D</text>
</g>
<!-- B_T&#45;&gt;B_R -->
<g id="edge32" class="edge">
<title>B_T&#45;&gt;B_R</title>
<path fill="none" stroke="green" stroke-dasharray="5,2" d="M532.92,-334.81C543.48,-310.41 559.86,-272.57 572.23,-243.99"/>
<polygon fill="green" stroke="green" points="576.1,-235.04 576.26,-246.01 574.6,-238.52 572.13,-244.22 572.13,-244.22 572.13,-244.22 574.6,-238.52 568,-242.43 576.1,-235.04"/>
<text text-anchor="middle" x="548.07" y="-292.6" font-family="Times,serif" font-size="14.00">B</text>
</g>
<!-- D_T -->
<g id="node18" class="node">
<title>D_T</title>
<ellipse fill="none" stroke="black" stroke-width="2" cx="344.96" cy="-307.32" rx="26.97" ry="26.97"/>
<text text-anchor="middle" x="344.96" y="-301.52" font-family="TeX Gyre Pagella" font-size="14.00">D_T</text>
</g>
<!-- B_T&#45;&gt;D_T -->
<g id="edge19" class="edge">
<title>B_T&#45;&gt;D_T</title>
<path fill="none" stroke="#555555" stroke-dasharray="5,2" d="M498.29,-347.13C465.36,-334.92 406.43,-317.65 372,-310.12"/>
</g>
<!-- B_T&#45;&gt;D_T -->
<g id="edge41" class="edge">
<title>B_T&#45;&gt;D_T</title>
<path fill="none" stroke="blue" stroke-dasharray="5,2" d="M495.54,-356.54C464.57,-349.78 413.56,-335.07 379.61,-323.27"/>
<polygon fill="blue" stroke="blue" points="370.38,-319.97 381.31,-319.1 373.94,-321.24 379.8,-323.34 379.8,-323.34 379.8,-323.34 373.94,-321.24 378.28,-327.57 370.38,-319.97"/>
<text text-anchor="middle" x="432.7" y="-343.1" font-family="Times,serif" font-size="14.00">D</text>
</g>
<!-- C_R -->
<g id="node11" class="node">
<title>C_R</title>
<ellipse fill="none" stroke="black" stroke-width="2" cx="934.92" cy="-628.72" rx="27.95" ry="27.95"/>
<ellipse fill="none" stroke="black" stroke-width="2" cx="934.92" cy="-628.72" rx="31.95" ry="31.95"/>
<text text-anchor="middle" x="934.92" y="-622.92" font-family="TeX Gyre Pagella" font-size="14.00">C_R</text>
</g>
<!-- C_PS -->
<g id="node12" class="node">
<title>C_PS</title>
<ellipse fill="none" stroke="black" stroke-width="2" cx="1003.55" cy="-815.13" rx="33.31" ry="33.31"/>
<text text-anchor="middle" x="1003.55" y="-809.33" font-family="TeX Gyre Pagella" font-size="14.00">C_PS</text>
</g>
<!-- C_R&#45;&gt;C_PS -->
<g id="edge9" class="edge">
<title>C_R&#45;&gt;C_PS</title>
<path fill="none" stroke="#555555" d="M936.04,-660.91C944.55,-697.1 965.82,-755.02 982.91,-788.68"/>
</g>
<!-- C_R&#45;&gt;C_PS -->
<g id="edge38" class="edge">
<title>C_R&#45;&gt;C_PS</title>
<path fill="none" stroke="blue" stroke-dasharray="5,2" d="M954.95,-653.96C970.34,-683.92 989.33,-734.27 999.32,-770.76"/>
<polygon fill="blue" stroke="blue" points="1001.81,-780.43 994.96,-771.87 1000.87,-776.76 999.31,-770.74 999.31,-770.74 999.31,-770.74 1000.87,-776.76 1003.67,-769.62 1001.81,-780.43"/>
<text text-anchor="middle" x="972.63" y="-699.06" font-family="Times,serif" font-size="14.00">C</text>
</g>
<!-- C_R&#45;&gt;C_T -->
<g id="edge10" class="edge">
<title>C_R&#45;&gt;C_T</title>
<path fill="none" stroke="#555555" d="M905.63,-615.7C875,-605.93 827.33,-593.89 797.44,-588.46"/>
</g>
<!-- C_X -->
<g id="node14" class="node">
<title>C_X</title>
<ellipse fill="none" stroke="black" stroke-width="2" cx="1092.75" cy="-601.82" rx="27.46" ry="27.46"/>
<text text-anchor="middle" x="1092.75" y="-596.02" font-family="TeX Gyre Pagella" font-size="14.00">C_X</text>
</g>
<!-- C_R&#45;&gt;C_X -->
<g id="edge11" class="edge">
<title>C_R&#45;&gt;C_X</title>
<path fill="none" stroke="#555555" d="M967.03,-628.83C996.43,-625.59 1039.39,-618.17 1066.71,-611.56"/>
</g>
<!-- C_R&#45;&gt;C_X -->
<g id="edge25" class="edge">
<title>C_R&#45;&gt;C_X</title>
<path fill="none" stroke="red" stroke-dasharray="5,2" d="M965.18,-617.98C990.39,-612.13 1026.46,-605.86 1053.82,-602.5"/>
<polygon fill="red" stroke="red" points="1063.74,-601.39 1054.31,-606.97 1059.99,-601.81 1053.81,-602.5 1053.81,-602.5 1053.81,-602.5 1059.99,-601.81 1053.3,-598.03 1063.74,-601.39"/>
<text text-anchor="middle" x="1005.37" y="-613.44" font-family="Times,serif" font-size="14.00">T</text>
</g>
<!-- C_Y -->
<g id="node15" class="node">
<title>C_Y</title>
<ellipse fill="none" stroke="black" stroke-width="2" cx="928.62" cy="-696.12" rx="27.46" ry="27.46"/>
<text text-anchor="middle" x="928.62" y="-690.32" font-family="TeX Gyre Pagella" font-size="14.00">C_Y</text>
</g>
<!-- C_R&#45;&gt;C_Y -->
<g id="edge12" class="edge">
<title>C_R&#45;&gt;C_Y</title>
<path fill="none" stroke="#555555" d="M931.92,-660.84C931.67,-663.42 931.43,-666.01 931.19,-668.55"/>
</g>
<!-- C_PS&#45;&gt;C_R -->
<g id="edge24" class="edge">
<title>C_PS&#45;&gt;C_R</title>
<path fill="none" stroke="red" stroke-dasharray="5,2" d="M991.91,-783.51C980.3,-751.97 962.42,-703.41 949.79,-669.1"/>
<polygon fill="red" stroke="red" points="946.47,-660.09 954.15,-667.92 947.78,-663.64 949.93,-669.47 949.93,-669.47 949.93,-669.47 947.78,-663.64 945.7,-671.03 946.47,-660.09"/>
<text text-anchor="middle" x="966.72" y="-729.5" font-family="Times,serif" font-size="14.00">T</text>
</g>
<!-- C_T&#45;&gt;C_R -->
<g id="edge37" class="edge">
<title>C_T&#45;&gt;C_R</title>
<path fill="none" stroke="blue" stroke-dasharray="5,2" d="M794.93,-598.33C820.59,-606.79 861.08,-617.4 891.93,-623.91"/>
<polygon fill="blue" stroke="blue" points="901.63,-625.87 890.93,-628.3 897.92,-625.12 891.82,-623.89 891.82,-623.89 891.82,-623.89 897.92,-625.12 892.72,-619.48 901.63,-625.87"/>
<text text-anchor="middle" x="838.93" y="-614.32" font-family="Times,serif" font-size="14.00">C</text>
</g>
<!-- D_R -->
<g id="node16" class="node">
<title>D_R</title>
<ellipse fill="none" stroke="black" stroke-width="2" cx="180.7" cy="-238.9" rx="27.95" ry="27.95"/>
<ellipse fill="none" stroke="black" stroke-width="2" cx="180.7" cy="-238.9" rx="31.95" ry="31.95"/>
<text text-anchor="middle" x="180.7" y="-233.1" font-family="TeX Gyre Pagella" font-size="14.00">D_R</text>
</g>
<!-- D_PS -->
<g id="node17" class="node">
<title>D_PS</title>
<ellipse fill="none" stroke="black" stroke-width="2" cx="156.03" cy="-63.33" rx="33.31" ry="33.31"/>
<text text-anchor="middle" x="156.03" y="-57.53" font-family="TeX Gyre Pagella" font-size="14.00">D_PS</text>
</g>
<!-- D_R&#45;&gt;D_PS -->
<g id="edge13" class="edge">
<title>D_R&#45;&gt;D_PS</title>
<path fill="none" stroke="#555555" d="M186.84,-207.26C186.3,-174.94 179.37,-125.15 171.02,-93.41"/>
</g>
<!-- D_R&#45;&gt;D_PS -->
<g id="edge43" class="edge">
<title>D_R&#45;&gt;D_PS</title>
<path fill="none" stroke="blue" stroke-dasharray="5,2" d="M166.08,-210.18C158.57,-182.25 152.14,-139.48 150.35,-107.28"/>
<polygon fill="blue" stroke="blue" points="149.97,-97.6 154.86,-107.41 150.12,-101.37 150.36,-107.59 150.36,-107.59 150.36,-107.59 150.12,-101.37 145.87,-107.77 149.97,-97.6"/>
<text text-anchor="middle" x="153.34" y="-161.93" font-family="Times,serif" font-size="14.00">D</text>
</g>
<!-- D_R&#45;&gt;D_T -->
<g id="edge14" class="edge">
<title>D_R&#45;&gt;D_T</title>
<path fill="none" stroke="#555555" d="M208.02,-256.04C238.62,-270.96 287.86,-291.36 318.22,-301.6"/>
</g>
<!-- D_X -->
<g id="node19" class="node">
<title>D_X</title>
<ellipse fill="none" stroke="black" stroke-width="2" cx="27.46" cy="-176.04" rx="27.46" ry="27.46"/>
<text text-anchor="middle" x="27.46" y="-170.24" font-family="TeX Gyre Pagella" font-size="14.00">D_X</text>
</g>
<!-- D_R&#45;&gt;D_X -->
<g id="edge15" class="edge">
<title>D_R&#45;&gt;D_X</title>
<path fill="none" stroke="#555555" d="M153.22,-221.73C125.39,-208.35 82.61,-190.9 54.81,-181.67"/>
</g>
<!-- D_R&#45;&gt;D_X -->
<g id="edge27" class="edge">
<title>D_R&#45;&gt;D_X</title>
<path fill="none" stroke="red" stroke-dasharray="5,2" d="M149.08,-231.83C123.29,-222.98 86.99,-208.21 60.75,-195.96"/>
<polygon fill="red" stroke="red" points="51.99,-191.77 62.95,-192.03 55.4,-193.4 61.01,-196.08 61.01,-196.08 61.01,-196.08 55.4,-193.4 59.06,-200.14 51.99,-191.77"/>
<text text-anchor="middle" x="100.79" y="-217.1" font-family="Times,serif" font-size="14.00">T</text>
</g>
<!-- D_Y -->
<g id="node20" class="node">
<title>D_Y</title>
<ellipse fill="none" stroke="black" stroke-width="2" cx="39.81" cy="-344.47" rx="27.46" ry="27.46"/>
<text text-anchor="middle" x="39.81" y="-338.67" font-family="TeX Gyre Pagella" font-size="14.00">D_Y</text>
</g>
<!-- D_R&#45;&gt;D_Y -->
<g id="edge16" class="edge">
<title>D_R&#45;&gt;D_Y</title>
<path fill="none" stroke="#555555" d="M151.98,-253.74C123.99,-272.24 82.36,-303.57 58.43,-324.24"/>
</g>
<!-- D_R&#45;&gt;D_Y -->
<g id="edge28" class="edge">
<title>D_R&#45;&gt;D_Y</title>
<path fill="none" stroke="red" stroke-dasharray="5,2" d="M158.39,-262.29C135.57,-281.59 99.95,-308.42 73.68,-326.18"/>
<polygon fill="red" stroke="red" points="65.47,-331.62 71.33,-322.34 68.63,-329.53 73.81,-326.09 73.81,-326.09 73.81,-326.09 68.63,-329.53 76.3,-329.85 65.47,-331.62"/>
<text text-anchor="middle" x="111.91" y="-297.44" font-family="Times,serif" font-size="14.00">T</text>
</g>
<!-- D_PS&#45;&gt;D_R -->
<g id="edge26" class="edge">
<title>D_PS&#45;&gt;D_R</title>
<path fill="none" stroke="red" stroke-dasharray="5,2" d="M160.73,-96.77C164.69,-124.95 170.38,-165.44 174.67,-196"/>
<polygon fill="red" stroke="red" points="176.02,-205.56 170.17,-196.29 175.49,-201.82 174.62,-195.66 174.62,-195.66 174.62,-195.66 175.49,-201.82 179.08,-195.04 176.02,-205.56"/>
<text text-anchor="middle" x="163.58" y="-149.59" font-family="Times,serif" font-size="14.00">T</text>
</g>
<!-- D_T&#45;&gt;D_R -->
<g id="edge42" class="edge">
<title>D_T&#45;&gt;D_R</title>
<path fill="none" stroke="blue" stroke-dasharray="5,2" d="M322.29,-292.48C296.61,-279.6 254.26,-261.64 222.54,-249.97"/>
<polygon fill="blue" stroke="blue" points="213.38,-246.68 224.31,-245.82 216.94,-247.96 222.79,-250.06 222.79,-250.06 222.79,-250.06 216.94,-247.96 221.27,-254.29 213.38,-246.68"/>
<text text-anchor="middle" x="267.54" y="-274.42" font-family="Times,serif" font-size="14.00">D</text>
</g>
</g>
</svg>
