<?xml version="1.0" encoding="UTF-8" standalone="no"?>
<!DOCTYPE svg PUBLIC "-//W3C//DTD SVG 1.1//EN"
 "http://www.w3.org/Graphics/SVG/1.1/DTD/svg11.dtd">
<!-- Generated by graphviz version 10.0.1 (20240210.2158)
 -->
<!-- Pages: 1 -->
<svg width="522pt" height="513pt"
 viewBox="0.00 0.00 522.04 512.89" xmlns="http://www.w3.org/2000/svg" xmlns:xlink="http://www.w3.org/1999/xlink">
<g id="graph0" class="graph" transform="scale(1 1) rotate(0) translate(4 508.89)">
<g id="clust1" class="cluster">
<title>cluster_a</title>
<polygon fill="none" stroke="#777777" points="0,0 0,-504.89 514.04,-504.89 514.04,0 0,0"/>
<text text-anchor="middle" x="257.02" y="-487.59" font-family="TeX Gyre Pagella" font-size="14.00">Node A</text>
</g>
<!-- A_R -->
<g id="node1" class="node">
<title>A_R</title>
<ellipse fill="none" stroke="black" stroke-width="2" cx="231.47" cy="-302.86" rx="27.46" ry="27.46"/>
<ellipse fill="none" stroke="black" stroke-width="2" cx="231.47" cy="-302.86" rx="31.46" ry="31.46"/>
<text text-anchor="middle" x="231.47" y="-297.06" font-family="TeX Gyre Pagella" font-size="14.00">A_R</text>
</g>
<!-- A_T -->
<g id="node2" class="node">
<title>A_T</title>
<ellipse fill="none" stroke="black" stroke-width="2" cx="297.42" cy="-250.99" rx="26.49" ry="26.49"/>
<text text-anchor="middle" x="297.42" y="-245.19" font-family="TeX Gyre Pagella" font-size="14.00">A_T</text>
</g>
<!-- A_R&#45;&gt;A_T -->
<g id="edge1" class="edge">
<title>A_R&#45;&gt;A_T</title>
<path fill="none" stroke="#555555" d="M256.4,-283.25C262.97,-278.08 269.99,-272.56 276.33,-267.58"/>
</g>
<!-- A_Y -->
<g id="node3" class="node">
<title>A_Y</title>
<ellipse fill="none" stroke="black" stroke-width="2" cx="135.03" cy="-26.97" rx="26.97" ry="26.97"/>
<text text-anchor="middle" x="135.03" y="-21.17" font-family="TeX Gyre Pagella" font-size="14.00">A_Y</text>
</g>
<!-- A_R&#45;&gt;A_Y -->
<g id="edge2" class="edge">
<title>A_R&#45;&gt;A_Y</title>
<path fill="none" stroke="#555555" d="M229.52,-270.99C216.71,-214.3 175.7,-97.55 151.29,-48.91"/>
</g>
<!-- A_R&#45;&gt;A_Y -->
<g id="edge6" class="edge">
<title>A_R&#45;&gt;A_Y</title>
<path fill="none" stroke="red" stroke-dasharray="5,2" d="M213.14,-276.72C189.42,-227.66 152.21,-121.87 138.41,-64.96"/>
<polygon fill="red" stroke="red" points="136.25,-55.45 142.86,-64.2 137.09,-59.13 138.47,-65.2 138.47,-65.2 138.47,-65.2 137.09,-59.13 134.08,-66.2 136.25,-55.45"/>
<text text-anchor="middle" x="170.9" y="-174.04" font-family="Times,serif" font-size="14.00">Y</text>
</g>
<!-- A_R&#45;&gt;A_Y -->
<g id="edge8" class="edge">
<title>A_R&#45;&gt;A_Y</title>
<path fill="none" stroke="blue" stroke-dasharray="5,2" d="M220.97,-272.81C203.07,-221.62 166.75,-117.72 147.56,-62.82"/>
<polygon fill="blue" stroke="blue" points="144.37,-53.67 151.91,-61.63 145.61,-57.24 147.67,-63.11 147.67,-63.11 147.67,-63.11 145.61,-57.24 143.42,-64.6 144.37,-53.67"/>
<text text-anchor="middle" x="180.14" y="-171.01" font-family="Times,serif" font-size="14.00">T</text>
</g>
<!-- A_X -->
<g id="node4" class="node">
<title>A_X</title>
<ellipse fill="none" stroke="black" stroke-width="2" cx="26.97" cy="-477.92" rx="26.97" ry="26.97"/>
<text text-anchor="middle" x="26.97" y="-472.12" font-family="TeX Gyre Pagella" font-size="14.00">A_X</text>
</g>
<!-- A_R&#45;&gt;A_X -->
<g id="edge3" class="edge">
<title>A_R&#45;&gt;A_X</title>
<path fill="none" stroke="#555555" d="M202.6,-315.82C157.99,-345.74 74.82,-417.19 41.17,-454.75"/>
</g>
<!-- A_R&#45;&gt;A_X -->
<g id="edge9" class="edge">
<title>A_R&#45;&gt;A_X</title>
<path fill="none" stroke="blue" stroke-dasharray="5,2" d="M214.21,-329.38C180.26,-366.15 105.54,-430.43 61.27,-461.24"/>
<polygon fill="blue" stroke="blue" points="53.06,-466.78 58.84,-457.46 56.2,-464.67 61.35,-461.19 61.35,-461.19 61.35,-461.19 56.2,-464.67 63.87,-464.92 53.06,-466.78"/>
<text text-anchor="middle" x="133.62" y="-398.51" font-family="Times,serif" font-size="14.00">T</text>
</g>
<!-- A_Z -->
<g id="node5" class="node">
<title>A_Z</title>
<ellipse fill="none" stroke="black" stroke-width="2" cx="487.56" cy="-447.34" rx="26.49" ry="26.49"/>
<text text-anchor="middle" x="487.56" y="-441.54" font-family="TeX Gyre Pagella" font-size="14.00">A_Z</text>
</g>
<!-- A_R&#45;&gt;A_Z -->
<g id="edge4" class="edge">
<title>A_R&#45;&gt;A_Z</title>
<path fill="none" stroke="#555555" d="M256.73,-322.13C305.83,-353.58 413.47,-414.2 462.45,-437.86"/>
</g>
<!-- A_X&#45;&gt;A_R -->
<g id="edge5" class="edge">
<title>A_X&#45;&gt;A_R</title>
<path fill="none" stroke="red" stroke-dasharray="5,2" d="M47.71,-460.17C83.33,-429.68 156.41,-367.11 198.9,-330.74"/>
<polygon fill="red" stroke="red" points="206.29,-324.41 201.62,-334.33 203.42,-326.87 198.7,-330.92 198.7,-330.92 198.7,-330.92 203.42,-326.87 195.77,-327.5 206.29,-324.41"/>
<text text-anchor="middle" x="118.43" y="-398.66" font-family="Times,serif" font-size="14.00">Y</text>
</g>
<!-- A_Z&#45;&gt;A_R -->
<g id="edge7" class="edge">
<title>A_Z&#45;&gt;A_R</title>
<path fill="none" stroke="blue" stroke-dasharray="5,2" d="M466.38,-430.71C423.47,-402.77 325.85,-347.36 270.89,-319.46"/>
<polygon fill="blue" stroke="blue" points="262.24,-315.12 273.19,-315.58 265.62,-316.82 271.18,-319.6 271.18,-319.6 271.18,-319.6 265.62,-316.82 269.16,-323.62 262.24,-315.12"/>
<text text-anchor="middle" x="364.51" y="-378.28" font-family="Times,serif" font-size="14.00">T</text>
</g>
</g>
</svg>
