<?xml version="1.0" encoding="UTF-8" standalone="no"?>
<!DOCTYPE svg PUBLIC "-//W3C//DTD SVG 1.1//EN"
 "http://www.w3.org/Graphics/SVG/1.1/DTD/svg11.dtd">
<!-- Generated by graphviz version 10.0.1 (20240210.2158)
 -->
<!-- Pages: 1 -->
<svg width="483pt" height="518pt"
 viewBox="0.00 0.00 483.15 518.01" xmlns="http://www.w3.org/2000/svg" xmlns:xlink="http://www.w3.org/1999/xlink">
<g id="graph0" class="graph" transform="scale(1 1) rotate(0) translate(4 514.01)">
<g id="clust1" class="cluster">
<title>cluster_a</title>
<polygon fill="none" stroke="#777777" points="0,-316.2 0,-510.01 249.04,-510.01 249.04,-316.2 0,-316.2"/>
<text text-anchor="middle" x="30.5" y="-492.71" font-family="TeX Gyre Pagella" font-size="14.00">Node A</text>
</g>
<g id="clust2" class="cluster">
<title>cluster_b</title>
<polygon fill="none" stroke="#777777" points="289.25,0 289.25,-251.55 475.15,-251.55 475.15,0 289.25,0"/>
<text text-anchor="middle" x="444.65" y="-234.25" font-family="TeX Gyre Pagella" font-size="14.00">Node B</text>
</g>
<!-- A_R -->
<g id="node1" class="node">
<title>A_R</title>
<ellipse fill="none" stroke="black" stroke-width="2" cx="156.55" cy="-421.6" rx="27.46" ry="27.46"/>
<ellipse fill="none" stroke="black" stroke-width="2" cx="156.55" cy="-421.6" rx="31.46" ry="31.46"/>
<text text-anchor="middle" x="156.55" y="-415.8" font-family="TeX Gyre Pagella" font-size="14.00">A_R</text>
</g>
<!-- A_T -->
<g id="node2" class="node">
<title>A_T</title>
<ellipse fill="none" stroke="black" stroke-width="2" cx="208.85" cy="-342.69" rx="26.49" ry="26.49"/>
<text text-anchor="middle" x="208.85" y="-336.89" font-family="TeX Gyre Pagella" font-size="14.00">A_T</text>
</g>
<!-- A_R&#45;&gt;A_T -->
<g id="edge1" class="edge">
<title>A_R&#45;&gt;A_T</title>
<path fill="none" stroke="#555555" d="M178.99,-399.28C186.2,-389.44 193.77,-377.86 199.57,-367.73"/>
</g>
<!-- A_R&#45;&gt;A_T -->
<g id="edge11" class="edge">
<title>A_R&#45;&gt;A_T</title>
<path fill="none" stroke="red" stroke-dasharray="5,2" d="M168.36,-392.24C172.79,-384.81 177.97,-376.87 183.12,-369.57"/>
<polygon fill="red" stroke="red" points="188.87,-361.72 186.59,-372.45 186.63,-364.78 182.96,-369.79 182.96,-369.79 182.96,-369.79 186.63,-364.78 179.33,-367.13 188.87,-361.72"/>
</g>
<!-- A_X -->
<g id="node3" class="node">
<title>A_X</title>
<ellipse fill="none" stroke="black" stroke-width="2" cx="26.97" cy="-437.86" rx="26.97" ry="26.97"/>
<text text-anchor="middle" x="26.97" y="-432.06" font-family="TeX Gyre Pagella" font-size="14.00">A_X</text>
</g>
<!-- A_R&#45;&gt;A_X -->
<g id="edge2" class="edge">
<title>A_R&#45;&gt;A_X</title>
<path fill="none" stroke="#555555" d="M124.78,-419.68C102.61,-421.17 73.4,-424.94 52.69,-429.03"/>
</g>
<!-- A_Y -->
<g id="node4" class="node">
<title>A_Y</title>
<ellipse fill="none" stroke="black" stroke-width="2" cx="90.05" cy="-483.04" rx="26.97" ry="26.97"/>
<text text-anchor="middle" x="90.05" y="-477.24" font-family="TeX Gyre Pagella" font-size="14.00">A_Y</text>
</g>
<!-- A_R&#45;&gt;A_Y -->
<g id="edge3" class="edge">
<title>A_R&#45;&gt;A_Y</title>
<path fill="none" stroke="#555555" d="M133.29,-443.09C125.65,-450.15 117.23,-457.92 109.87,-464.73"/>
</g>
<!-- A_Z -->
<g id="node5" class="node">
<title>A_Z</title>
<ellipse fill="none" stroke="black" stroke-width="2" cx="222.55" cy="-478.88" rx="26.49" ry="26.49"/>
<text text-anchor="middle" x="222.55" y="-473.08" font-family="TeX Gyre Pagella" font-size="14.00">A_Z</text>
</g>
<!-- A_R&#45;&gt;A_Z -->
<g id="edge4" class="edge">
<title>A_R&#45;&gt;A_Z</title>
<path fill="none" stroke="#555555" d="M180.38,-442.28C187.61,-448.56 195.49,-455.4 202.46,-461.44"/>
</g>
<!-- B_T -->
<g id="node7" class="node">
<title>B_T</title>
<ellipse fill="none" stroke="black" stroke-width="2" cx="319.09" cy="-225.07" rx="26.49" ry="26.49"/>
<text text-anchor="middle" x="319.09" y="-219.27" font-family="TeX Gyre Pagella" font-size="14.00">B_T</text>
</g>
<!-- A_T&#45;&gt;B_T -->
<g id="edge9" class="edge">
<title>A_T&#45;&gt;B_T</title>
<path fill="none" stroke="#555555" stroke-dasharray="5,2" d="M230.56,-327.04C252.62,-306.64 285.96,-271.07 304.89,-247.74"/>
</g>
<!-- A_T&#45;&gt;B_T -->
<g id="edge12" class="edge">
<title>A_T&#45;&gt;B_T</title>
<path fill="none" stroke="red" stroke-dasharray="5,2" d="M223.06,-320.01C239.85,-299.32 267.96,-269.01 289.5,-248.18"/>
<polygon fill="red" stroke="red" points="296.51,-241.54 292.34,-251.69 293.76,-244.14 289.25,-248.42 289.25,-248.42 289.25,-248.42 293.76,-244.14 286.15,-245.15 296.51,-241.54"/>
</g>
<!-- A_X&#45;&gt;A_R -->
<g id="edge10" class="edge">
<title>A_X&#45;&gt;A_R</title>
<path fill="none" stroke="red" stroke-dasharray="5,2" d="M54.2,-440.06C71.89,-439.08 95.28,-436.41 115.24,-433.2"/>
<polygon fill="red" stroke="red" points="125.02,-431.52 115.92,-437.65 121.29,-432.16 115.16,-433.21 115.16,-433.21 115.16,-433.21 121.29,-432.16 114.4,-428.78 125.02,-431.52"/>
</g>
<!-- B_R -->
<g id="node6" class="node">
<title>B_R</title>
<ellipse fill="none" stroke="black" stroke-width="2" cx="381.74" cy="-142.15" rx="27.46" ry="27.46"/>
<ellipse fill="none" stroke="black" stroke-width="2" cx="381.74" cy="-142.15" rx="31.46" ry="31.46"/>
<text text-anchor="middle" x="381.74" y="-136.35" font-family="TeX Gyre Pagella" font-size="14.00">B_R</text>
</g>
<!-- B_R&#45;&gt;B_T -->
<g id="edge5" class="edge">
<title>B_R&#45;&gt;B_T</title>
<path fill="none" stroke="#555555" d="M357.96,-163.26C348.42,-174.63 337.93,-188.68 330.17,-200.54"/>
</g>
<!-- B_Y -->
<g id="node8" class="node">
<title>B_Y</title>
<ellipse fill="none" stroke="black" stroke-width="2" cx="448.18" cy="-163.3" rx="26.97" ry="26.97"/>
<text text-anchor="middle" x="448.18" y="-157.5" font-family="TeX Gyre Pagella" font-size="14.00">B_Y</text>
</g>
<!-- B_R&#45;&gt;B_Y -->
<g id="edge6" class="edge">
<title>B_R&#45;&gt;B_Y</title>
<path fill="none" stroke="#555555" d="M411.85,-151.73C415.28,-152.82 418.76,-153.93 422.14,-155.01"/>
</g>
<!-- B_X -->
<g id="node9" class="node">
<title>B_X</title>
<ellipse fill="none" stroke="black" stroke-width="2" cx="404.64" cy="-26.97" rx="26.97" ry="26.97"/>
<text text-anchor="middle" x="404.64" y="-21.17" font-family="TeX Gyre Pagella" font-size="14.00">B_X</text>
</g>
<!-- B_R&#45;&gt;B_X -->
<g id="edge7" class="edge">
<title>B_R&#45;&gt;B_X</title>
<path fill="none" stroke="#555555" d="M393.74,-112.76C398.39,-94.7 402.86,-71.74 405.11,-54.11"/>
</g>
<!-- B_R&#45;&gt;B_X -->
<g id="edge14" class="edge">
<title>B_R&#45;&gt;B_X</title>
<path fill="none" stroke="red" stroke-dasharray="5,2" d="M381.9,-110.41C384,-95.55 387.43,-77.8 391.11,-62.5"/>
<polygon fill="red" stroke="red" points="393.53,-53.05 395.41,-63.85 392.59,-56.71 391.05,-62.73 391.05,-62.73 391.05,-62.73 392.59,-56.71 386.69,-61.62 393.53,-53.05"/>
</g>
<!-- B_Z -->
<g id="node10" class="node">
<title>B_Z</title>
<ellipse fill="none" stroke="black" stroke-width="2" cx="315.73" cy="-91.77" rx="26.49" ry="26.49"/>
<text text-anchor="middle" x="315.73" y="-85.97" font-family="TeX Gyre Pagella" font-size="14.00">B_Z</text>
</g>
<!-- B_R&#45;&gt;B_Z -->
<g id="edge8" class="edge">
<title>B_R&#45;&gt;B_Z</title>
<path fill="none" stroke="#555555" d="M356.41,-122.81C350.01,-117.93 343.21,-112.74 337.03,-108.02"/>
</g>
<!-- B_T&#45;&gt;B_R -->
<g id="edge13" class="edge">
<title>B_T&#45;&gt;B_R</title>
<path fill="none" stroke="red" stroke-dasharray="5,2" d="M339.65,-207.73C346.71,-199.59 354.57,-189.58 361.59,-179.84"/>
<polygon fill="red" stroke="red" points="367.32,-171.66 365.27,-182.43 365.15,-174.75 361.58,-179.85 361.58,-179.85 361.58,-179.85 365.15,-174.75 357.9,-177.27 367.32,-171.66"/>
</g>
</g>
</svg>
